<svg xmlns="http://www.w3.org/2000/svg" width="172.98" height="47.88" viewBox="0 0 172.98 47.88">
  <g id="Group_997" data-name="Group 997" transform="translate(-39.02 -645.12)">
    <g id="Group_966" data-name="Group 966" transform="translate(0 -95.018)">
      <text id="Əlaqə_nömrəsi" data-name="Əlaqə
nömrəsi" transform="translate(162 765.018)" fill="#fc0" font-size="13" font-family="HelveticaNeue-Italic, Helvetica Neue" font-style="italic" letter-spacing="0.03em"><tspan x="0" y="0">Əlaqə</tspan><tspan x="0" y="14">nömrəsi</tspan></text>
      <text id="_9009" data-name="*9009" transform="translate(58 780.018)" fill="#fc0" font-size="36" font-family="HelveticaNeue-BoldItalic, Helvetica Neue" font-weight="700" font-style="italic" letter-spacing="0.03em"><tspan x="0" y="0">*9009</tspan></text>
    </g>
    <g id="call-answer_1_" data-name="call-answer (1)" transform="matrix(0.259, 0.966, -0.966, 0.259, 63.216, 645.018)">
      <g id="Group_976" data-name="Group 976" transform="translate(0 0.394)">
        <g id="Group_975" data-name="Group 975" transform="translate(0 0)">
          <path id="Path_13776" data-name="Path 13776" d="M24.158,19.9l-3.816-3.817a1.99,1.99,0,0,0-2.806.053l-1.923,1.922-.379-.211A19.134,19.134,0,0,1,10.609,14.5,19.241,19.241,0,0,1,7.257,9.865c-.071-.129-.139-.253-.207-.371l1.29-1.289.634-.635a1.988,1.988,0,0,0,.051-2.806L5.21.947A1.988,1.988,0,0,0,2.4,1L1.329,2.082l.029.029A6.22,6.22,0,0,0,.472,3.675,6.482,6.482,0,0,0,.078,5.26c-.5,4.178,1.405,8,6.586,13.177,7.162,7.161,12.933,6.62,13.182,6.594a6.449,6.449,0,0,0,1.59-.4,6.2,6.2,0,0,0,1.558-.882l.023.021,1.09-1.067A1.992,1.992,0,0,0,24.158,19.9Z" transform="translate(0 -0.394)" fill="#fc0"/>
        </g>
      </g>
    </g>
  </g>
</svg>
